<?xml version="1.0" standalone="no"?>
<!DOCTYPE svg PUBLIC "-//W3C//DTD SVG 20010904//EN"
 "http://www.w3.org/TR/2001/REC-SVG-20010904/DTD/svg10.dtd">
<svg version="1.0" xmlns="http://www.w3.org/2000/svg"
 width="586.000000pt" height="586.000000pt" viewBox="0 0 586.000000 586.000000"
 preserveAspectRatio="xMidYMid meet">
<metadata>
Created by potrace 1.14, written by Peter Selinger 2001-2017
</metadata>
<g transform="translate(0.000000,586.000000) scale(0.100000,-0.100000)"
fill="#000000" stroke="none">
<path d="M880 5315 l0 -545 -290 0 -290 0 0 -980 0 -980 85 0 85 0 0 900 0
900 205 0 205 0 0 -1785 0 -1785 1970 0 1970 0 0 -120 0 -120 -2260 0 -2260 0
0 -280 0 -280 2340 0 2340 0 0 400 0 400 290 0 290 0 0 975 0 975 -85 0 -85 0
0 -890 0 -890 -205 0 -205 0 0 1780 0 1780 -1970 0 -1970 0 0 230 0 230 2260
0 2260 0 0 315 0 315 -2340 0 -2340 0 0 -545z m3940 -2405 l0 -1700 -1890 0
-1890 0 0 1700 0 1700 1890 0 1890 0 0 -1700z"/>
</g>
</svg>
